<?xml version="1.0" encoding="UTF-8"?>
<svg id="Layer_1" data-name="Layer 1" xmlns="http://www.w3.org/2000/svg" viewBox="0 0 1366 347.52">
  <defs>
    <style>
      .cls-1 {
        fill: #fff;
      }
    </style>
  </defs>
  <path class="cls-1" d="M376.16,178.22c.91-.63,1.65-1.21,2.25-1.8,3.51-2.55,7.08-5.41,10.66-8.53.86,2.87,2.01,9.18,2.01,16.65,0,6.03-.57,12.63-2.87,18.66-3.45-5.74-9.18-8.04-14.93-8.04-9.18,0-18.37,6.03-18.37,14.06,0,9.47,9.18,17.22,23.25,17.22,16.06,0,44.06-15.17,66.72-29.88-3.93,9.23-6.45,16.23-6.45,18.97,0,4.88,6.03,10.05,10.91,10.05,8.04,0,35.59-30.42,57.12-44.78-2.87,7.75-10.62,22.1-10.62,35.02,0,8.61,4.02,11.19,8.03,11.19,9.47,0,21.24-6.6,22.68-10.91,1.72-5.74-1.72-9.18,7.46-27.84,6.6-13.2,9.47-19.52,9.47-27.27,0-5.74-6.31-11.48-11.77-11.48-10.91,0-37.6,21.53-58.84,42.77,4.59-8.61,11.19-24.11,16.36-33.29,26.69-34.16,71.18-109.07,71.18-126.29,0-6.03-3.44-14.64-8.9-14.64-8.04,0-35.59,40.47-68.03,99.89-7.21,13.33-17.7,33.81-26.75,52.68-10.55,7.76-25.17,17.41-43.57,26.25.86-4.59,1.15-9.47,1.15-14.35,0-21.24-6.89-42.48-14.06-42.48-4.02,0-17.51,15.79-49.66,38.75-1.91,1.33-3.53,2.52-4.87,3.57-10.98,7.53-23.78,15.3-36.45,20.25-5.45,2.01-11.77,3.73-17.79,3.73s-11.48-1.44-14.06-5.74c20.95-4.59,46.21-16.36,46.21-34.44,0-11.19-8.61-17.51-23.54-17.51-16.45,0-36.49,10.78-46.8,25.83-13.74,9.97-32.12,21.81-51.36,29.28,0-8.61,13.2-22.1,13.2-32.15,0-3.73-1.72-6.89-6.89-9.18-4.02-1.72-8.04-3.44-13.2-5.17.86-2.58,1.44-5.17,1.44-7.46,0-7.75-5.45-12.63-15.79-12.63-12.34,0-21.24,10.62-21.24,21.24,0,4.3,1.15,8.32,4.3,12.05.58.86,1.15,1.72,2.01,2.3-.88.84-1.76,1.69-2.65,2.52-.14-.24-.31-.46-.52-.67-5.17-4.59-19.16-18-36.44-20.8,17.51-40.47,37.6-83.24,54.82-114.81,2.58-4.88,3.73-9.18,3.73-12.63,0-8.61-7.18-12.92-16.07-12.92-47.65,0-113.95,35.3-138.64,58.55-2.01,2.01-2.87,5.17-2.87,8.04,0,4.02,1.44,7.46,4.02,7.46.58,0,1.44-.29,2.01-.86,32.43-23.53,74.05-42.48,113.95-49.37-12.05,22.39-34.16,68.6-52.24,113.95-40.47.58-86.4,14.06-86.4,30.14,0,11.48,10.33,31.57,22.67,44.2,13.49,14.35,35.02,30.71,48.22,30.71,4.88,0,8.61-2.3,10.33-7.75,6.03-19.81,16.65-47.93,29.28-78.36,13.85.81,25.36,10.54,32.35,15.85-9.83,8.66-20.21,17.07-31.49,25.48-1.15.86-2.01,2.87-2.01,4.88,0,4.31,2.58,8.9,6.89,8.9,1.44,0,2.58-.29,4.31-1.44,18.08-11.48,29.56-22.68,49.94-43.34,2.87,1.15,6.6,2.01,10.62,3.73-3.16,7.46-13.2,20.09-13.2,27.55,0,8.61,4.02,12.63,11.19,12.63,11.67,0,37.28-13.94,58.87-27.83.71,19.96,13.75,27.83,34.12,27.83,28.99,0,57.98-19.23,95.58-46.21ZM68.18,233.05c-17.22-5.74-39.32-35.02-41.9-50.23,17.79-9.18,40.76-14.06,62.28-14.92-9.18,24.11-16.65,47.07-20.38,65.15ZM295.8,163.01c3.16,0,4.88,2.3,4.88,5.17,0,6.03-6.89,14.93-24.11,18.37,2.01-14.35,10.33-23.53,19.23-23.53Z"/>
  <path class="cls-1" d="M1346.42,18.07c-16.93,0-83.52,124.28-98.74,161.59-6.89,10.91-26.4,24.11-34.16,24.11-5.17,0-6.89-4.02-6.89-8.32,0-3.73,1.15-7.75,2.87-9.76,12.34-2.01,36.45-13.2,36.45-27.84,0-4.02-3.16-9.18-10.91-9.18-10.79,0-30.58,13.29-43.86,29.35-12.62,8.8-28.61,18.73-44.25,24.04,3.73-14.35,14.35-28.42,14.35-41.04,0-5.74-6.32-11.48-11.77-11.48-10.91,0-37.6,21.53-58.84,42.76,4.59-8.61,14.06-23.82,16.94-29.85,2.01-4.02,2.01-4.59,2.01-5.17,0-4.88-8.9-9.18-17.22-9.18-4.88,0-9.76,1.44-12.06,5.45-3.25,5.37-6.29,10.64-9.1,15.72-13.22,9.84-35.09,25.57-56.34,32.78,5.74-15.79,13.78-31.86,20.09-45.35.29-.86.57-1.72.57-2.58,0-4.88-8.32-6.6-16.93-6.6-5.17,0-8.9,2.3-10.62,5.74-9.18,18.66-32.15,44.49-54.25,52.81,6.6-13.78,18.94-37.6,22.67-45.35,1.15-2.3,1.15-2.87,1.15-3.73,0-4.59-8.9-8.9-17.22-8.9-4.88,0-9.76,1.44-12.06,5.45-3.2,5.3-6.12,10.31-8.76,15.04-10.86,7.24-21.07,11.12-31.48,11.12-2.01,0-2.72.1-4.44-.18,1.2-3.81,1.41-6.22,1.41-10.24,0-12.34-4.96-16.26-11.84-13.85-4.01,1.41,3.92,11.37-15.75,27.83-14.98,10.17-23.02,3.45-39.66,21.55-5.69,6.19-7.24,6.34-11.18,7.45-.53.15,2.61-6.57,4.03-9.32,14.14-27.39,18.03-15.97,41.38-28.59,10.44-8.83,19.32-16.23,17.16-26.34-1.33-6.24-15.71-6.02-18.87-6.02-15.81,0-40.92,12.52-50.81,37.72-12.62,8.66-28.01,17.87-43.97,24.07,0-8.61,13.2-22.1,13.2-32.15,0-3.73-1.72-6.89-6.89-9.18-4.02-1.72-8.04-3.44-13.2-5.17.86-2.58,1.44-5.17,1.44-7.46,0-7.75-5.45-12.63-15.79-12.63-12.34,0-21.24,10.62-21.24,21.24,0,4.3,1.15,8.32,4.3,12.05.58.86,1.15,1.72,2.01,2.3-9.24,8.86-23.65,17.22-37.26,25.49,5.4-10.64,11.21-21.33,17.65-32.66.29-.58.58-1.15.58-1.72,0-5.17-10.33-12.63-18.66-12.63-3.44,0-6.03,1.15-8.61,4.3-8.32,10.33-28.7,35.02-45.64,35.02-12.05,0-17.51-8.61-17.51-22.1,0-43.63,56.25-136.34,118.54-136.34,9.76,0,13.78,5.45,13.78,13.78,0,19.23-21.81,53.39-41.62,67.74-1.15.86-1.43,1.44-1.43,2.3,0,3.44,7.75,7.75,13.49,7.75,1.72,0,3.16-.29,4.3-1.15,30.71-22.67,51.66-56.26,51.66-80.08,0-16.65-10.33-28.7-35.02-28.7-59.13,0-157.58,87.54-157.58,164.18,0,19.23,8.9,36.16,32.43,36.16,19.23,0,34.73-10.05,45.92-20.95-6.14,13.41-11.7,27.11-16.49,40.92-22.96.16-46.12.98-69.38,2.52-109.5,7.27-221.15,30.6-323.8,76.75-4.64,2.58,4.06,4.3,4.06,4.3,101.48-43.93,212.4-61.83,319.73-64.48,21.26-.52,42.38-.45,63.25.13-2.21,7.6-4.15,15.21-5.79,22.8-.29,1.44-.58,3.16-.58,4.59,0,9.76,6.31,19.52,11.77,19.52,2.3,0,4.3-1.72,5.74-6.03,4.87-14.62,9.55-27.72,14.26-39.92,162.38,7.82,307.3,45.32,385.66,71.93,3.67,1.2,6.96,2,9.05,2.46.71.18,1.43.33,2.17.44.11.02.17.03.17.03,0,0,0,0,.01,0,1.13.16,2.28.25,3.45.24,12.61-.07,22.77-10.35,22.7-22.95-.07-12.61-10.35-22.77-22.95-22.7-8.51.05-15.91,4.75-19.79,11.69-1.4,1.31-4.01,2.77-8.08,1.25-.41-.15-.77-.26-1.07-.33-96.11-34.44-225.1-59.94-363.16-62.12,1.38-3.24,2.78-6.44,4.19-9.6.6-.22,1.23-.56,1.98-1.05,18.08-11.48,40.68-22.36,61.06-43.02,2.87,1.15,6.6,2.01,10.62,3.73-3.16,7.46-13.2,20.09-13.2,27.55,0,8.61,4.02,12.63,11.19,12.63,10.83,0,33.69-12.02,54.19-24.86-.6,14.02,9.51,25.48,28.99,25.48s42.66-13.34,53.86-30.28c3.16.86,3.84.43,7.28.43,8.15,0,15.8-1.64,22.72-4.21-3.76,8.62-5.74,15.28-5.74,19.67,0,8.61,1.72,14.93,16.36,14.93s32.15-9.18,52.81-30.71c-3.73,6.89-7.46,15.21-7.46,21.24,0,4.88,2.3,8.32,8.61,8.32,15,0,38.3-11.36,65.35-28.86-3.79,8.86-5.94,15.86-5.94,19.96,0,4.88,10.05,10.05,14.93,10.05,8.04,0,35.59-30.42,57.12-44.78-2.87,7.75-10.62,22.67-10.62,31s4.02,12.63,11.19,12.63c12.7,0,31.36-8.14,53.2-21.26-.25,1.47-.38,2.91-.38,4.33,0,12.34,7.17,17.8,20.09,17.8,11.48,0,26.12-8.32,39.04-21.24-.86,2.87-1.15,5.45-1.15,7.75,0,8.61,2.58,14.35,9.76,14.35,19.52,0,20.09-10.33,20.09-12.92s.29-8.32,1.15-13.2c1.15-7.46,5.17-17.22,8.32-24.11,26.98-36.16,80.37-127.72,80.37-143.23,0-5.74-3.44-14.64-8.9-14.64Z"/>
</svg>