<?xml version="1.0" encoding="UTF-8"?>
<svg id="Layer_1" data-name="Layer 1" xmlns="http://www.w3.org/2000/svg" viewBox="0 0 200 200">
  <defs>
    <style>
      .cls-1 {
        fill: #a26149;
      }
    </style>
  </defs>
  <path class="cls-1" d="M49.85,108.39c9.69-24.3,21.54-49.07,28-61.07-21.38,3.69-43.69,13.84-61.07,26.46-.31.31-.77.46-1.08.46-1.38,0-2.15-1.85-2.15-4,0-1.54.46-3.23,1.54-4.31,13.23-12.46,48.76-31.38,74.3-31.38,4.77,0,8.61,2.31,8.61,6.92,0,1.85-.62,4.15-2,6.77-9.23,16.92-20,39.84-29.38,61.53,4.79.78,9.09,3.07,12.53,5.45,5.62-39.12,54.09-80.67,83.91-80.67,3.54,0,6.51.47,8.98,1.32C154.37,16.04,128.65,3.55,100,3.55,46.73,3.55,3.55,46.73,3.55,100c0,6.92.74,13.67,2.12,20.18,6.41-6.57,26.28-11.54,44.18-11.79Z"/>
  <path class="cls-1" d="M35.54,152.23c2-9.69,6-22,10.92-34.92-11.54.46-23.84,3.08-33.38,8,1.38,8.15,13.23,23.84,22.46,26.92Z"/>
  <path class="cls-1" d="M181.78,48.85c.02.36.04.72.04,1.08,0,12.77-11.23,30.77-27.69,42.92-.62.46-1.38.62-2.31.62-3.08,0-7.23-2.31-7.23-4.15,0-.46.15-.77.77-1.23,10.61-7.69,22.31-26,22.31-36.3,0-4.46-2.15-7.38-7.38-7.38-33.38,0-63.53,49.69-63.53,73.07,0,7.23,2.92,11.84,9.38,11.84,9.08,0,20-13.23,24.46-18.77,1.38-1.69,2.77-2.31,4.62-2.31,4.46,0,10,4,10,6.77,0,.31-.15.62-.31.92-3.45,6.07-22.27,46.22-24.88,52.06-15.63,34.92-18.27,15.72-18.27,15.72,0-5.84,8.42-26.21,10.01-31.08,2.57-7.4,5.55-14.74,8.84-21.93-6,5.84-14.31,11.23-24.61,11.23-11.16,0-16.18-7.11-17.19-15.89-3.8-2.92-9.41-7.11-16.03-7.49-6.77,16.3-12.46,31.38-15.69,41.99-.92,2.92-2.92,4.15-5.54,4.15-6.48,0-16.69-7.35-23.92-14.5,16.94,27.74,47.49,46.26,82.37,46.26,53.27,0,96.45-43.18,96.45-96.45,0-18.79-5.38-36.32-14.67-51.15Z"/>
</svg>